<svg xmlns="http://www.w3.org/2000/svg" viewBox="0 0 1800 1200" role="img" aria-labelledby="title desc">
  <title id="title">Mars fashion atelier</title>
  <desc id="desc">A modern fashion design studio with mannequins, garments, fabric, and warm editorial lighting.</desc>
  <defs>
    <linearGradient id="wall" x1="0" x2="1" y1="0" y2="1">
      <stop offset="0" stop-color="#fff4e2"/>
      <stop offset="0.45" stop-color="#ead5c2"/>
      <stop offset="1" stop-color="#382a26"/>
    </linearGradient>
    <linearGradient id="floor" x1="0" x2="1" y1="0" y2="0">
      <stop offset="0" stop-color="#1a1514"/>
      <stop offset="0.52" stop-color="#5b3e36"/>
      <stop offset="1" stop-color="#211817"/>
    </linearGradient>
    <linearGradient id="dressA" x1="0" x2="1" y1="0" y2="1">
      <stop offset="0" stop-color="#f5ded0"/>
      <stop offset="0.52" stop-color="#b95b52"/>
      <stop offset="1" stop-color="#4b1f24"/>
    </linearGradient>
    <linearGradient id="dressB" x1="0" x2="0" y1="0" y2="1">
      <stop offset="0" stop-color="#244d4a"/>
      <stop offset="0.65" stop-color="#0f2f2d"/>
      <stop offset="1" stop-color="#101414"/>
    </linearGradient>
    <linearGradient id="gold" x1="0" x2="1" y1="0" y2="1">
      <stop offset="0" stop-color="#f2d98c"/>
      <stop offset="1" stop-color="#a87728"/>
    </linearGradient>
    <filter id="softShadow" x="-30%" y="-30%" width="160%" height="160%">
      <feDropShadow dx="0" dy="28" stdDeviation="24" flood-color="#120d0b" flood-opacity="0.34"/>
    </filter>
    <filter id="blurGlow" x="-40%" y="-40%" width="180%" height="180%">
      <feGaussianBlur stdDeviation="42"/>
    </filter>
    <pattern id="grid" width="44" height="44" patternUnits="userSpaceOnUse">
      <path d="M44 0H0V44" fill="none" stroke="#2f2422" stroke-width="1" opacity="0.2"/>
    </pattern>
  </defs>

  <rect width="1800" height="1200" fill="url(#wall)"/>
  <path d="M0 760 C380 690 740 725 1074 750 C1360 772 1574 730 1800 670 L1800 1200 L0 1200 Z" fill="url(#floor)"/>
  <rect y="720" width="1800" height="480" fill="url(#grid)" opacity="0.46"/>

  <g opacity="0.74" filter="url(#blurGlow)">
    <ellipse cx="1185" cy="265" rx="365" ry="230" fill="#f4c46f"/>
    <ellipse cx="575" cy="330" rx="245" ry="170" fill="#ffffff"/>
    <ellipse cx="1495" cy="560" rx="230" ry="175" fill="#c0646c"/>
  </g>

  <g opacity="0.42">
    <rect x="88" y="126" width="438" height="12" fill="#171313"/>
    <rect x="88" y="196" width="318" height="8" fill="#171313"/>
    <rect x="88" y="260" width="382" height="8" fill="#171313"/>
    <rect x="1410" y="124" width="260" height="10" fill="#171313"/>
    <rect x="1488" y="180" width="182" height="8" fill="#171313"/>
  </g>

  <g transform="translate(1010 250)" filter="url(#softShadow)">
    <rect x="290" y="120" width="28" height="540" rx="14" fill="#251c1b"/>
    <rect x="98" y="650" width="414" height="34" rx="17" fill="#251c1b"/>
    <path d="M130 156 C210 120 396 118 476 156" fill="none" stroke="#251c1b" stroke-width="22" stroke-linecap="round"/>
    <g>
      <path d="M156 212 C196 180 256 170 298 212 C342 172 408 182 450 222 C412 336 430 468 502 602 C406 648 242 652 132 606 C205 475 198 340 156 212 Z" fill="#f5ded0"/>
      <path d="M185 228 C226 208 266 210 298 250 C332 206 395 212 430 244 C392 342 412 470 462 586 C368 614 254 614 174 584 C226 466 226 334 185 228 Z" fill="url(#dressA)"/>
      <path d="M304 252 C312 380 306 482 280 610" fill="none" stroke="#f4d2bd" stroke-width="8" opacity="0.45"/>
      <path d="M216 272 C272 312 354 316 418 278" fill="none" stroke="#f2d98c" stroke-width="7" opacity="0.78"/>
    </g>
  </g>

  <g transform="translate(545 270)" filter="url(#softShadow)">
    <ellipse cx="198" cy="78" rx="42" ry="48" fill="#a98365"/>
    <path d="M148 140 C152 82 244 84 250 142 L260 248 C302 326 324 454 338 594 C246 632 132 632 54 592 C70 456 92 326 136 246 Z" fill="#caa486"/>
    <path d="M126 162 C168 122 230 124 270 166 C260 270 290 410 336 592 C262 622 128 622 58 590 C108 404 136 270 126 162 Z" fill="url(#dressB)"/>
    <path d="M202 164 C206 284 202 436 188 610" fill="none" stroke="#f2d98c" stroke-width="7" opacity="0.65"/>
    <path d="M110 258 C176 302 248 306 300 260" fill="none" stroke="#f4e3ca" stroke-width="5" opacity="0.3"/>
    <rect x="186" y="606" width="24" height="152" rx="12" fill="#2a1f1d"/>
    <rect x="98" y="752" width="198" height="26" rx="13" fill="#2a1f1d"/>
  </g>

  <g transform="translate(110 446)" filter="url(#softShadow)">
    <rect x="0" y="314" width="458" height="36" rx="18" fill="#231a18"/>
    <rect x="36" y="34" width="32" height="294" rx="16" fill="#231a18"/>
    <rect x="380" y="34" width="32" height="294" rx="16" fill="#231a18"/>
    <rect x="32" y="26" width="382" height="26" rx="13" fill="#231a18"/>
    <path d="M78 56 L146 56 L166 318 L58 318 Z" fill="#d8a0a6"/>
    <path d="M168 56 L232 56 L250 318 L148 318 Z" fill="#fff3df"/>
    <path d="M252 56 L318 56 L348 318 L236 318 Z" fill="#1f6b68"/>
    <path d="M330 56 L386 56 L406 318 L310 318 Z" fill="#a14f3f"/>
    <path d="M96 56 C112 92 122 128 120 168" fill="none" stroke="#ffffff" stroke-width="4" opacity="0.35"/>
    <path d="M274 56 C290 112 298 168 296 230" fill="none" stroke="#f2d98c" stroke-width="4" opacity="0.45"/>
  </g>

  <g transform="translate(770 720)" filter="url(#softShadow)">
    <path d="M42 92 C164 52 328 56 470 102 L436 206 C302 176 164 176 58 210 Z" fill="#fff3df"/>
    <path d="M72 118 C186 90 328 92 438 124 L416 188 C294 166 174 168 84 192 Z" fill="#d8a0a6"/>
    <path d="M100 138 C212 118 326 120 404 144" fill="none" stroke="#a14f3f" stroke-width="7" opacity="0.45"/>
    <circle cx="82" cy="194" r="14" fill="url(#gold)"/>
    <circle cx="414" cy="184" r="14" fill="url(#gold)"/>
  </g>

  <g transform="translate(1290 728)" opacity="0.9">
    <rect x="0" y="0" width="256" height="156" rx="8" fill="#fffaf2"/>
    <rect x="28" y="26" width="120" height="10" fill="#171313" opacity="0.62"/>
    <rect x="28" y="54" width="190" height="8" fill="#171313" opacity="0.26"/>
    <rect x="28" y="80" width="156" height="8" fill="#171313" opacity="0.26"/>
    <path d="M188 30 C220 52 224 96 196 124 C162 94 164 54 188 30 Z" fill="#1f6b68"/>
    <path d="M180 40 C194 70 198 96 196 126" fill="none" stroke="#f2d98c" stroke-width="4"/>
  </g>

  <g transform="translate(1392 374)" opacity="0.95" filter="url(#softShadow)">
    <circle cx="0" cy="0" r="58" fill="url(#gold)"/>
    <path d="M-22 18 L0 -28 L24 18 Z" fill="#171313"/>
    <text x="0" y="88" text-anchor="middle" fill="#171313" font-family="Inter, Arial, sans-serif" font-size="28" font-weight="800" letter-spacing="7">MARS</text>
  </g>
</svg>
